{
  "asset": {
    "version": "2.0",
    "generator": "THREE.GLTFExporter"
  },
  "scenes": [
    {
      "name": "variant-switch",
      "nodes": [
        7
      ],
      "extras": {
        "src": "__$project$__/ir-engine/ir-starter-assets/assets/prefabs/collider-toggle.gltf?hash=42fce5"
      }
    }
  ],
  "scene": 0,
  "nodes": [
    {
      "matrix": [
        1,
        5.473822126268817e-48,
        -2.4308653429145085e-63,
        0,
        -5.473822126268817e-48,
        1,
        -4.440892098500626e-16,
        0,
        0,
        4.440892098500626e-16,
        1,
        0,
        -2.7369110631344047e-48,
        0.49999999999999734,
        -6,
        1
      ],
      "name": "Variant",
      "extras": {
        "src": "__$project$__/ir-engine/ir-starter-assets/assets/models/artistic_tree_01.glb?hash=a6102a"
      },
      "extensions": {
        "EE_uuid": "f5158c23-eb32-48db-b7bb-c9a4b65b7345",
        "EE_visible": {},
        "EE_model": {
          "src": "__$project$__/ir-engine/ir-starter-assets/assets/models/artistic_tree_01.glb?hash=a6102a",
          "cameraOcclusion": true,
          "convertToVRM": false
        },
        "EE_variant": {
          "levels": [
            {
              "src": "__$project$__/ir-engine/ir-starter-assets/assets/models/artistic_tree_01.glb?hash=a6102a",
              "metadata": {}
            },
            {
              "src": "__$project$__/ir-engine/ir-starter-assets/assets/models/artistic_tree_05.glb?hash=0d7d06",
              "metadata": {}
            }
          ],
          "heuristic": "MANUAL",
          "useDistance": false,
          "currentLevel": 0,
          "budgetLevel": 0
        }
      }
    },
    {
      "matrix": [
        1,
        0,
        0,
        0,
        0,
        -1.3435885588294653e-7,
        0.9999999657714559,
        0,
        0,
        -0.4999999999999955,
        -6.717943024092675e-8,
        0,
        0,
        0.49999999999999545,
        6.717943018541561e-8,
        1
      ],
      "name": "Geo",
      "mesh": 0,
      "extensions": {
        "EE_uuid": "f62f6d55-f624-43da-9a80-a34614ada0a2",
        "EE_visible": true,
        "EE_shadow": {
          "cast": true,
          "receive": true
        },
        "EE_envmap": {
          "type": "None",
          "envMapTextureType": "Equirectangular",
          "envMapSourceColor": 4095,
          "envMapSourceURL": "",
          "envMapSourceEntityUUID": "",
          "envMapIntensity": 1,
          "envmap": null
        }
      }
    },
    {
      "matrix": [
        2,
        0,
        0,
        0,
        0,
        1,
        0,
        0,
        0,
        0,
        2,
        0,
        0,
        0.5,
        0,
        1
      ],
      "name": "Trigger",
      "extensions": {
        "EE_uuid": "089a8104-c252-4826-ad78-6a5d9aeeaa2a",
        "EE_visible": true,
        "EE_collider": {
          "shape": "box",
          "mass": 1,
          "massCenter": {
            "x": 0,
            "y": 0,
            "z": 0
          },
          "friction": 0.5,
          "restitution": 0.5,
          "collisionLayer": 1,
          "collisionMask": 7
        },
        "EE_rigidbody": {
          "type": "fixed",
          "ccd": false,
          "allowRolling": true,
          "enabledRotations": [
            true,
            true,
            true
          ],
          "canSleep": true,
          "gravityScale": 1
        },
        "EE_trigger": {
          "triggers": [
            {
              "target": "f5158c23-eb32-48db-b7bb-c9a4b65b7345",
              "onEnter": "variantLevel0",
              "onExit": ""
            }
          ]
        }
      }
    },
    {
      "matrix": [
        1,
        0,
        0,
        0,
        0,
        1,
        0,
        0,
        0,
        0,
        1,
        0,
        -2,
        0,
        0,
        1
      ],
      "name": "Toggle_On",
      "children": [
        1,
        2
      ],
      "extensions": {
        "EE_uuid": "6ff6c0cf-2983-4603-a96e-062bc9b3a678",
        "EE_visible": true
      }
    },
    {
      "matrix": [
        1,
        0,
        0,
        0,
        0,
        0.5,
        0,
        0,
        0,
        0,
        0.9999999657714601,
        0,
        0,
        0.5,
        0,
        1
      ],
      "name": "Geo_1",
      "mesh": 1,
      "extensions": {
        "EE_uuid": "a8928c11-311a-40ed-9eb1-aed302e6924e",
        "EE_visible": true,
        "EE_shadow": {
          "cast": true,
          "receive": true
        },
        "EE_envmap": {
          "type": "None",
          "envMapTextureType": "Equirectangular",
          "envMapSourceColor": 4095,
          "envMapSourceURL": "",
          "envMapSourceEntityUUID": "",
          "envMapIntensity": 1,
          "envmap": null
        }
      }
    },
    {
      "matrix": [
        2,
        0,
        0,
        0,
        0,
        1,
        0,
        0,
        0,
        0,
        2,
        0,
        0,
        0.5,
        0,
        1
      ],
      "name": "Trigger_1",
      "extensions": {
        "EE_uuid": "4388d3fe-38b3-44ac-ac21-b851f83af599",
        "EE_visible": true,
        "EE_collider": {
          "shape": "box",
          "mass": 1,
          "massCenter": {
            "x": 0,
            "y": 0,
            "z": 0
          },
          "friction": 0.5,
          "restitution": 0.5,
          "collisionLayer": 1,
          "collisionMask": 7
        },
        "EE_rigidbody": {
          "type": "fixed",
          "ccd": false,
          "allowRolling": true,
          "enabledRotations": [
            true,
            true,
            true
          ],
          "canSleep": true,
          "gravityScale": 1
        },
        "EE_trigger": {
          "triggers": [
            {
              "target": "f5158c23-eb32-48db-b7bb-c9a4b65b7345",
              "onEnter": "variantLevel1",
              "onExit": ""
            }
          ]
        }
      }
    },
    {
      "matrix": [
        1,
        0,
        0,
        0,
        0,
        1,
        0,
        0,
        0,
        0,
        1,
        0,
        2,
        0,
        0,
        1
      ],
      "name": "Toggle_Off",
      "children": [
        4,
        5
      ],
      "extensions": {
        "EE_uuid": "e287a558-35cd-4d31-b622-a686f2d44835",
        "EE_visible": true
      }
    },
    {
      "name": "Variant Switch",
      "children": [
        0,
        3,
        6
      ],
      "extensions": {
        "EE_uuid": "18ccd6d2-0736-4a8c-9821-b67c1e5e801d",
        "EE_visible": true
      }
    }
  ],
  "bufferViews": [
    {
      "buffer": 0,
      "byteOffset": 0,
      "byteLength": 192,
      "target": 34962,
      "byteStride": 8
    },
    {
      "buffer": 1,
      "byteOffset": 0,
      "byteLength": 288,
      "target": 34962,
      "byteStride": 12
    },
    {
      "buffer": 2,
      "byteOffset": 0,
      "byteLength": 288,
      "target": 34962,
      "byteStride": 12
    },
    {
      "buffer": 3,
      "byteOffset": 0,
      "byteLength": 144,
      "target": 34963
    },
    {
      "buffer": 4,
      "byteOffset": 0,
      "byteLength": 192,
      "target": 34962,
      "byteStride": 8
    },
    {
      "buffer": 5,
      "byteOffset": 0,
      "byteLength": 288,
      "target": 34962,
      "byteStride": 12
    },
    {
      "buffer": 6,
      "byteOffset": 0,
      "byteLength": 288,
      "target": 34962,
      "byteStride": 12
    },
    {
      "buffer": 7,
      "byteOffset": 0,
      "byteLength": 144,
      "target": 34963
    }
  ],
  "buffers": [
    {
      "name": "e67554d0047cfbbe990c7cfd8eda0f69c991822e2a096225a32e601957e2cb74",
      "byteLength": 192,
      "uri": "model-resources/variant-switch/buffers/e67554d0047cfbbe990c7cfd8eda0f69c991822e2a096225a32e601957e2cb74.bin"
    },
    {
      "name": "ee2ab6c0671ca3bcf01eba9a4818c41e37563107577749b0c12a01bb865b0d65",
      "byteLength": 288,
      "uri": "model-resources/variant-switch/buffers/ee2ab6c0671ca3bcf01eba9a4818c41e37563107577749b0c12a01bb865b0d65.bin"
    },
    {
      "name": "7c28d07851b934942e96f2229c36c25070eba235439836fcb9817f11fb6fec79",
      "byteLength": 288,
      "uri": "model-resources/variant-switch/buffers/7c28d07851b934942e96f2229c36c25070eba235439836fcb9817f11fb6fec79.bin"
    },
    {
      "name": "cfbb53488fbe149cd9ca515423f3314a76bd14e1349a67a1694d150709c83059",
      "byteLength": 144,
      "uri": "model-resources/variant-switch/buffers/cfbb53488fbe149cd9ca515423f3314a76bd14e1349a67a1694d150709c83059.bin"
    },
    {
      "name": "e67554d0047cfbbe990c7cfd8eda0f69c991822e2a096225a32e601957e2cb74",
      "byteLength": 192,
      "uri": "model-resources/variant-switch/buffers/e67554d0047cfbbe990c7cfd8eda0f69c991822e2a096225a32e601957e2cb74.bin"
    },
    {
      "name": "ee2ab6c0671ca3bcf01eba9a4818c41e37563107577749b0c12a01bb865b0d65",
      "byteLength": 288,
      "uri": "model-resources/variant-switch/buffers/ee2ab6c0671ca3bcf01eba9a4818c41e37563107577749b0c12a01bb865b0d65.bin"
    },
    {
      "name": "7c28d07851b934942e96f2229c36c25070eba235439836fcb9817f11fb6fec79",
      "byteLength": 288,
      "uri": "model-resources/variant-switch/buffers/7c28d07851b934942e96f2229c36c25070eba235439836fcb9817f11fb6fec79.bin"
    },
    {
      "name": "cfbb53488fbe149cd9ca515423f3314a76bd14e1349a67a1694d150709c83059",
      "byteLength": 144,
      "uri": "model-resources/variant-switch/buffers/cfbb53488fbe149cd9ca515423f3314a76bd14e1349a67a1694d150709c83059.bin"
    }
  ],
  "accessors": [
    {
      "bufferView": 0,
      "componentType": 5126,
      "count": 24,
      "max": [
        0.87493896484375,
        1
      ],
      "min": [
        0.125,
        0
      ],
      "type": "VEC2"
    },
    {
      "bufferView": 1,
      "componentType": 5126,
      "count": 24,
      "max": [
        1,
        1.0000001192092896,
        1
      ],
      "min": [
        -1,
        -0.9999998807907104,
        -1
      ],
      "type": "VEC3"
    },
    {
      "bufferView": 2,
      "componentType": 5126,
      "count": 24,
      "max": [
        1,
        1,
        1
      ],
      "min": [
        -1,
        -1,
        -1
      ],
      "type": "VEC3"
    },
    {
      "bufferView": 3,
      "componentType": 5125,
      "count": 36,
      "max": [
        23
      ],
      "min": [
        0
      ],
      "type": "SCALAR"
    },
    {
      "bufferView": 4,
      "componentType": 5126,
      "count": 24,
      "max": [
        0.87493896484375,
        1
      ],
      "min": [
        0.125,
        0
      ],
      "type": "VEC2"
    },
    {
      "bufferView": 5,
      "componentType": 5126,
      "count": 24,
      "max": [
        1,
        1.0000001192092896,
        1
      ],
      "min": [
        -1,
        -0.9999998807907104,
        -1
      ],
      "type": "VEC3"
    },
    {
      "bufferView": 6,
      "componentType": 5126,
      "count": 24,
      "max": [
        1,
        1,
        1
      ],
      "min": [
        -1,
        -1,
        -1
      ],
      "type": "VEC3"
    },
    {
      "bufferView": 7,
      "componentType": 5125,
      "count": 36,
      "max": [
        23
      ],
      "min": [
        0
      ],
      "type": "SCALAR"
    }
  ],
  "materials": [
    {
      "alphaMode": "BLEND",
      "doubleSided": true,
      "name": "Material.002",
      "extras": {
        "plugins": [],
        "CSMPlugin": {
          "id": "CSM0.8816177550270936",
          "priority": 1
        }
      },
      "extensions": {
        "EE_material": {
          "uuid": "488d0c9e-9a0f-45f1-a345-e2fd2d83509b",
          "name": "Material.002",
          "prototype": "MeshStandardMaterial",
          "plugins": [],
          "args": {
            "alphaTest": {
              "type": "float",
              "contents": 0
            },
            "alphaMap": {
              "type": "texture",
              "contents": null
            },
            "map": {
              "type": "texture",
              "contents": null
            },
            "color": {
              "type": "color",
              "contents": 16711680
            },
            "opacity": {
              "type": "float",
              "contents": 0.25
            },
            "blending": {
              "type": "select",
              "contents": 1
            },
            "depthTest": {
              "type": "boolean",
              "contents": true
            },
            "depthWrite": {
              "type": "boolean",
              "contents": true
            },
            "side": {
              "type": "select",
              "contents": 2
            },
            "toneMapped": {
              "type": "boolean",
              "contents": true
            },
            "transparent": {
              "type": "boolean",
              "contents": true
            },
            "vertexColors": {
              "type": "boolean",
              "contents": false
            },
            "emissive": {
              "type": "color",
              "contents": 0
            },
            "emissiveMap": {
              "type": "texture",
              "contents": null
            },
            "emissiveIntensity": {
              "type": "float",
              "contents": 1
            },
            "combine": {
              "type": "select"
            },
            "envMap": {
              "type": "texture",
              "contents": null
            },
            "envMapIntensity": {
              "type": "float",
              "contents": 1
            },
            "reflectivity": {
              "type": "float"
            },
            "refractionRatio": {
              "type": "float"
            },
            "normalMap": {
              "type": "texture",
              "contents": null
            },
            "normalMapType": {
              "type": "select",
              "contents": 0
            },
            "normalScale": {
              "type": "vec2",
              "contents": {
                "x": 1,
                "y": 1
              }
            },
            "bumpMap": {
              "type": "texture",
              "contents": null
            },
            "bumpScale": {
              "type": "float",
              "contents": 1
            },
            "displacementMap": {
              "type": "texture",
              "contents": null
            },
            "displacementScale": {
              "type": "float",
              "contents": 1
            },
            "displacementBias": {
              "type": "float",
              "contents": 0
            },
            "roughness": {
              "type": "float",
              "contents": 0.4000000059604645
            },
            "roughnessMap": {
              "type": "texture",
              "contents": null
            },
            "metalness": {
              "type": "float",
              "contents": 0
            },
            "metalnessMap": {
              "type": "texture",
              "contents": null
            },
            "aoMap": {
              "type": "texture",
              "contents": null
            },
            "aoMapIntensity": {
              "type": "float",
              "contents": 1
            },
            "lightMap": {
              "type": "texture",
              "contents": null
            },
            "lightMapIntensity": {
              "type": "float",
              "contents": 1
            }
          }
        }
      }
    },
    {
      "alphaMode": "BLEND",
      "doubleSided": true,
      "name": "Material.002",
      "extras": {
        "plugins": [],
        "CSMPlugin": {
          "id": "CSM0.2611988374010641",
          "priority": 1
        }
      },
      "extensions": {
        "EE_material": {
          "uuid": "c0641ce5-c280-4534-8f14-ced9bc9f1e33",
          "name": "Material.002",
          "prototype": "MeshStandardMaterial",
          "plugins": [],
          "args": {
            "alphaTest": {
              "type": "float",
              "contents": 0
            },
            "alphaMap": {
              "type": "texture",
              "contents": null
            },
            "map": {
              "type": "texture",
              "contents": null
            },
            "color": {
              "type": "color",
              "contents": 4886754
            },
            "opacity": {
              "type": "float",
              "contents": 0.25
            },
            "blending": {
              "type": "select",
              "contents": 1
            },
            "depthTest": {
              "type": "boolean",
              "contents": true
            },
            "depthWrite": {
              "type": "boolean",
              "contents": true
            },
            "side": {
              "type": "select",
              "contents": 2
            },
            "toneMapped": {
              "type": "boolean",
              "contents": true
            },
            "transparent": {
              "type": "boolean",
              "contents": true
            },
            "vertexColors": {
              "type": "boolean",
              "contents": false
            },
            "emissive": {
              "type": "color",
              "contents": 0
            },
            "emissiveMap": {
              "type": "texture",
              "contents": null
            },
            "emissiveIntensity": {
              "type": "float",
              "contents": 1
            },
            "combine": {
              "type": "select"
            },
            "envMap": {
              "type": "texture",
              "contents": null
            },
            "envMapIntensity": {
              "type": "float",
              "contents": 1
            },
            "reflectivity": {
              "type": "float"
            },
            "refractionRatio": {
              "type": "float"
            },
            "normalMap": {
              "type": "texture",
              "contents": null
            },
            "normalMapType": {
              "type": "select",
              "contents": 0
            },
            "normalScale": {
              "type": "vec2",
              "contents": {
                "x": 1,
                "y": -1
              }
            },
            "bumpMap": {
              "type": "texture",
              "contents": null
            },
            "bumpScale": {
              "type": "float",
              "contents": 1
            },
            "displacementMap": {
              "type": "texture",
              "contents": null
            },
            "displacementScale": {
              "type": "float",
              "contents": 1
            },
            "displacementBias": {
              "type": "float",
              "contents": 0
            },
            "roughness": {
              "type": "float",
              "contents": 0.4000000059604645
            },
            "roughnessMap": {
              "type": "texture",
              "contents": null
            },
            "metalness": {
              "type": "float",
              "contents": 0
            },
            "metalnessMap": {
              "type": "texture",
              "contents": null
            },
            "aoMap": {
              "type": "texture",
              "contents": null
            },
            "aoMapIntensity": {
              "type": "float",
              "contents": 1
            },
            "lightMap": {
              "type": "texture",
              "contents": null
            },
            "lightMapIntensity": {
              "type": "float",
              "contents": 1
            }
          }
        }
      }
    }
  ],
  "meshes": [
    {
      "primitives": [
        {
          "mode": 4,
          "attributes": {
            "TEXCOORD_0": 0,
            "POSITION": 1,
            "NORMAL": 2
          },
          "indices": 3,
          "material": 0
        }
      ],
      "extensions": {
        "EE_resourceId": {
          "resourceId": "10ed55e5-4f4c-4a31-a20a-0ee58fec1093"
        }
      }
    },
    {
      "primitives": [
        {
          "mode": 4,
          "attributes": {
            "TEXCOORD_0": 4,
            "POSITION": 5,
            "NORMAL": 6
          },
          "indices": 7,
          "material": 1
        }
      ],
      "extensions": {
        "EE_resourceId": {
          "resourceId": "17b0357a-d935-4405-9244-5736dd86b35c"
        }
      }
    }
  ],
  "extensionsUsed": [
    "EE_uuid",
    "EE_visible",
    "EE_model",
    "EE_variant",
    "EE_ecs",
    "EE_material",
    "EE_resourceId",
    "EE_shadow",
    "EE_envmap",
    "EE_collider",
    "EE_rigidbody",
    "EE_trigger"
  ]
}